<svg width="80" height="10" viewBox="0 0 573 208" fill="none" xmlns="http://www.w3.org/2000/svg">
<g filter="url(#filter0_d)">
<path d="M98.08 115.05H84.52C84.04 115.05 83.8 114.81 83.8 114.33V111.27C83.8 110.79 84.04 110.55 84.52 110.55H88.72L84.82 100.17H68.08L64.18 110.55H68.38C68.86 110.55 69.1 110.79 69.1 111.27V114.33C69.1 114.81 68.86 115.05 68.38 115.05H54.88C54.4 115.05 54.16 114.81 54.16 114.33V111.27C54.16 110.79 54.4 110.55 54.88 110.55H58.9L71.8 76.4698H68.56C68.04 76.4698 67.78 76.2298 67.78 75.7498V72.6898C67.78 72.2098 68.04 71.9698 68.56 71.9698H76.72C77.68 71.9698 78.4 72.1698 78.88 72.5698C79.4 72.9698 79.84 73.6298 80.2 74.5498L94 110.55H98.08C98.56 110.55 98.8 110.79 98.8 111.27V114.33C98.8 114.81 98.56 115.05 98.08 115.05ZM83.2 96.0298L76.54 78.2098H76.36L69.64 96.0298H83.2ZM149.536 115.05H135.676C135.196 115.05 134.956 114.81 134.956 114.33V111.27C134.956 110.79 135.196 110.55 135.676 110.55H139.696V80.6698H139.636L128.236 108.99C127.756 110.19 126.876 110.79 125.596 110.79C124.316 110.79 123.436 110.19 122.956 108.99L111.556 80.6698H111.436V110.55H115.456C115.976 110.55 116.236 110.79 116.236 111.27V114.33C116.236 114.81 115.976 115.05 115.456 115.05H101.656C101.136 115.05 100.876 114.81 100.876 114.33V111.27C100.876 110.79 101.136 110.55 101.656 110.55H106.216V76.4698H101.656C101.136 76.4698 100.876 76.2298 100.876 75.7498V72.6898C100.876 72.2098 101.136 71.9698 101.656 71.9698H110.896C112.256 71.9698 113.196 72.6498 113.716 74.0098L122.656 95.6098L125.476 103.17H125.716C126.836 100.05 127.756 97.5698 128.476 95.7298L137.476 74.0098C137.996 72.6498 138.956 71.9698 140.356 71.9698H149.536C150.016 71.9698 150.256 72.2098 150.256 72.6898V75.7498C150.256 76.2298 150.016 76.4698 149.536 76.4698H144.916V110.55H149.536C150.016 110.55 150.256 110.79 150.256 111.27V114.33C150.256 114.81 150.016 115.05 149.536 115.05ZM197.045 115.05H183.485C183.005 115.05 182.765 114.81 182.765 114.33V111.27C182.765 110.79 183.005 110.55 183.485 110.55H187.685L183.785 100.17H167.045L163.145 110.55H167.345C167.825 110.55 168.065 110.79 168.065 111.27V114.33C168.065 114.81 167.825 115.05 167.345 115.05H153.845C153.365 115.05 153.125 114.81 153.125 114.33V111.27C153.125 110.79 153.365 110.55 153.845 110.55H157.865L170.765 76.4698H167.525C167.005 76.4698 166.745 76.2298 166.745 75.7498V72.6898C166.745 72.2098 167.005 71.9698 167.525 71.9698H175.685C176.645 71.9698 177.365 72.1698 177.845 72.5698C178.365 72.9698 178.805 73.6298 179.165 74.5498L192.965 110.55H197.045C197.525 110.55 197.765 110.79 197.765 111.27V114.33C197.765 114.81 197.525 115.05 197.045 115.05ZM182.165 96.0298L175.505 78.2098H175.325L168.605 96.0298H182.165ZM217.481 115.05H200.261C199.781 115.05 199.541 114.81 199.541 114.33V111.27C199.541 110.79 199.781 110.55 200.261 110.55H204.881V76.4698H200.261C199.781 76.4698 199.541 76.2298 199.541 75.7498V72.6898C199.541 72.2098 199.781 71.9698 200.261 71.9698H216.461C223.101 71.9698 228.381 73.8898 232.301 77.7298C236.221 81.5298 238.181 86.7698 238.181 93.4498C238.181 100.13 236.321 105.41 232.601 109.29C228.881 113.13 223.841 115.05 217.481 115.05ZM210.101 110.55H216.041C227.161 110.47 232.721 104.81 232.721 93.5698C232.721 88.1698 231.281 83.9698 228.401 80.9698C225.561 77.9698 221.381 76.4698 215.861 76.4698H210.101V110.55ZM274.668 115.05H242.808C242.288 115.05 242.028 114.81 242.028 114.33V111.27C242.028 110.79 242.288 110.55 242.808 110.55H247.368V76.4698H242.808C242.288 76.4698 242.028 76.2298 242.028 75.7498V72.6898C242.028 72.2098 242.288 71.9698 242.808 71.9698H274.668C275.188 71.9698 275.448 72.2098 275.448 72.6898V82.3498C275.448 82.8698 275.188 83.1298 274.668 83.1298H271.428C270.948 83.1298 270.708 82.8698 270.708 82.3498V76.4698H252.588V91.3498H267.768C268.288 91.3498 268.548 91.5898 268.548 92.0698V95.1298C268.548 95.6098 268.288 95.8498 267.768 95.8498H252.588V110.55H270.648V104.67C270.648 104.19 270.908 103.95 271.428 103.95H274.668C275.188 103.95 275.448 104.19 275.448 104.67V114.33C275.448 114.81 275.188 115.05 274.668 115.05ZM313.748 99.4498V76.4698H309.128C308.648 76.4698 308.408 76.2298 308.408 75.7498V72.6898C308.408 72.2098 308.648 71.9698 309.128 71.9698H323.588C324.068 71.9698 324.308 72.2098 324.308 72.6898V75.7498C324.308 76.2298 324.068 76.4698 323.588 76.4698H318.968V98.9098C318.968 104.31 317.548 108.43 314.708 111.27C311.908 114.07 307.928 115.47 302.768 115.47C297.648 115.47 293.668 114.07 290.828 111.27C287.988 108.43 286.568 104.31 286.568 98.9098V76.4698H282.008C281.488 76.4698 281.228 76.2298 281.228 75.7498V72.6898C281.228 72.2098 281.488 71.9698 282.008 71.9698H296.408C296.928 71.9698 297.188 72.2098 297.188 72.6898V75.7498C297.188 76.2298 296.928 76.4698 296.408 76.4698H291.788V99.0898C291.788 106.77 295.468 110.61 302.828 110.61C306.588 110.61 309.348 109.63 311.108 107.67C312.868 105.67 313.748 102.93 313.748 99.4498ZM332.887 115.05H329.527C329.007 115.05 328.747 114.81 328.747 114.33V100.29C328.747 99.7698 329.007 99.5098 329.527 99.5098H333.307C333.787 99.5098 334.027 99.7698 334.027 100.29V101.55C334.027 102.31 334.487 103.33 335.407 104.61C336.327 105.85 337.247 106.87 338.167 107.67C339.087 108.47 340.307 109.17 341.827 109.77C343.387 110.33 345.067 110.61 346.867 110.61C349.947 110.61 352.347 109.97 354.067 108.69C355.827 107.41 356.707 105.63 356.707 103.35C356.707 102.03 356.207 100.91 355.207 99.9898C354.247 99.0298 352.987 98.2698 351.427 97.7098C349.867 97.1498 348.127 96.6298 346.207 96.1498C344.327 95.6698 342.427 95.1298 340.507 94.5298C338.627 93.8898 336.907 93.1498 335.347 92.3098C333.787 91.4298 332.507 90.2298 331.507 88.7098C330.547 87.1498 330.067 85.3298 330.067 83.2498C330.067 79.8898 331.327 77.1098 333.847 74.9098C336.407 72.7098 339.827 71.6098 344.107 71.6098C349.507 71.6098 353.467 73.1898 355.987 76.3498L355.867 72.6298C355.867 72.1498 356.127 71.9098 356.647 71.9098H360.007C360.487 71.9098 360.727 72.1498 360.727 72.6298V85.7098C360.727 86.1898 360.487 86.4298 360.007 86.4298H356.227C355.747 86.4298 355.507 86.1898 355.507 85.7098V84.0298C355.507 82.3898 354.587 80.7298 352.747 79.0498C350.907 77.3698 348.207 76.5298 344.647 76.5298C342.007 76.5298 339.867 77.1698 338.227 78.4498C336.627 79.6898 335.827 81.2898 335.827 83.2498C335.827 84.6498 336.327 85.8498 337.327 86.8498C338.327 87.8498 339.627 88.6498 341.227 89.2498C342.827 89.8498 344.587 90.4098 346.507 90.9298C348.427 91.4098 350.347 91.9498 352.267 92.5498C354.187 93.1498 355.947 93.8698 357.547 94.7098C359.147 95.5498 360.447 96.7098 361.447 98.1898C362.447 99.6298 362.947 101.35 362.947 103.35C362.947 106.87 361.687 109.77 359.167 112.05C356.647 114.33 352.887 115.47 347.887 115.47C344.207 115.47 341.167 114.73 338.767 113.25C336.367 111.77 334.627 110.17 333.547 108.45L333.607 114.33C333.607 114.81 333.367 115.05 332.887 115.05ZM407.677 115.05H388.297C387.777 115.05 387.517 114.81 387.517 114.33V111.27C387.517 110.79 387.777 110.55 388.297 110.55H392.857V76.4698H388.297C387.777 76.4698 387.517 76.2298 387.517 75.7498V72.6898C387.517 72.2098 387.777 71.9698 388.297 71.9698H407.617C411.617 71.9698 414.717 73.0298 416.917 75.1498C419.157 77.2698 420.277 80.0498 420.277 83.4898C420.277 87.5298 418.497 90.5498 414.937 92.5498C420.057 94.0298 422.617 97.4298 422.617 102.75C422.617 106.51 421.357 109.51 418.837 111.75C416.357 113.95 412.637 115.05 407.677 115.05ZM398.077 110.55H407.257C410.417 110.55 412.877 109.89 414.637 108.57C416.437 107.21 417.337 105.13 417.337 102.33C417.337 97.3298 414.097 94.8298 407.617 94.8298H398.077V110.55ZM398.077 90.8698H407.257C409.337 90.8298 411.137 90.2298 412.657 89.0698C414.217 87.9098 414.997 86.0898 414.997 83.6098C414.997 81.1298 414.177 79.3298 412.537 78.2098C410.937 77.0498 408.957 76.4698 406.597 76.4698H398.077V90.8698ZM461.657 115.05H456.797C455.957 115.05 454.997 114.31 453.917 112.83L452.657 111.03C449.817 113.99 446.157 115.47 441.677 115.47C437.237 115.47 433.797 114.25 431.357 111.81C428.917 109.33 427.697 106.51 427.697 103.35C427.697 99.6298 428.957 96.7098 431.477 94.5898C433.437 92.9498 435.597 91.6498 437.957 90.6898C435.237 87.5298 433.877 84.4298 433.877 81.3898C433.877 78.3498 434.817 75.9698 436.697 74.2498C438.617 72.4898 440.977 71.6098 443.777 71.6098C446.577 71.6098 448.937 72.4098 450.857 74.0098C452.817 75.6098 453.797 77.8498 453.797 80.7298C453.797 83.6098 452.957 85.8898 451.277 87.5698C449.637 89.2498 447.417 90.7898 444.617 92.1898L452.597 103.53C453.637 101.41 454.157 98.4098 454.157 94.5298C454.157 94.0498 454.417 93.8098 454.937 93.8098H462.857C463.337 93.8098 463.577 94.0498 463.577 94.5298V96.7498C463.577 97.2298 463.337 97.4698 462.857 97.4698H458.417C458.257 101.07 457.277 104.43 455.477 107.55L457.877 110.91H461.657C462.177 110.91 462.437 111.15 462.437 111.63V114.33C462.437 114.81 462.177 115.05 461.657 115.05ZM433.037 103.23C433.037 105.59 433.897 107.49 435.617 108.93C437.337 110.37 439.437 111.09 441.917 111.09C445.357 111.09 448.077 109.89 450.077 107.49L440.597 94.2298C437.077 95.7498 434.797 97.5698 433.757 99.6898C433.277 100.77 433.037 101.95 433.037 103.23ZM448.637 84.0898C449.037 83.2498 449.237 82.1898 449.237 80.9098C449.237 79.6298 448.777 78.4898 447.857 77.4898C446.977 76.4498 445.717 75.9298 444.077 75.9298C442.477 75.9298 441.177 76.4298 440.177 77.4298C439.177 78.4298 438.677 79.8898 438.677 81.8098C438.677 83.6898 439.857 86.0698 442.217 88.9498C445.777 87.3898 447.917 85.7698 448.637 84.0898ZM488.946 115.05H469.566C469.046 115.05 468.786 114.81 468.786 114.33V111.27C468.786 110.79 469.046 110.55 469.566 110.55H474.126V76.4698H469.566C469.046 76.4698 468.786 76.2298 468.786 75.7498V72.6898C468.786 72.2098 469.046 71.9698 469.566 71.9698H488.886C492.886 71.9698 495.986 73.0298 498.186 75.1498C500.426 77.2698 501.546 80.0498 501.546 83.4898C501.546 87.5298 499.766 90.5498 496.206 92.5498C501.326 94.0298 503.886 97.4298 503.886 102.75C503.886 106.51 502.626 109.51 500.106 111.75C497.626 113.95 493.906 115.05 488.946 115.05ZM479.346 110.55H488.526C491.686 110.55 494.146 109.89 495.906 108.57C497.706 107.21 498.606 105.13 498.606 102.33C498.606 97.3298 495.366 94.8298 488.886 94.8298H479.346V110.55ZM479.346 90.8698H488.526C490.606 90.8298 492.406 90.2298 493.926 89.0698C495.486 87.9098 496.266 86.0898 496.266 83.6098C496.266 81.1298 495.446 79.3298 493.806 78.2098C492.206 77.0498 490.226 76.4698 487.866 76.4698H479.346V90.8698Z" fill="black"/>
</g>
<g filter="url(#filter1_d)">
<path d="M563 100C563 111.334 556.527 122.96 542.949 134.323C529.404 145.66 509.445 156.138 484.256 165.055C433.93 182.869 364.013 194 286.5 194C208.987 194 139.07 182.869 88.7445 165.055C63.555 156.138 43.5965 145.66 30.0511 134.323C16.4734 122.96 10 111.334 10 100C10 88.6661 16.4734 77.04 30.0511 65.6767C43.5965 54.3405 63.555 43.8621 88.7445 34.9454C139.07 17.1312 208.987 6.00002 286.5 6.00002C364.013 6.00002 433.93 17.1312 484.256 34.9454C509.445 43.8621 529.404 54.3405 542.949 65.6767C556.527 77.04 563 88.6661 563 100Z" stroke="#2E6625" stroke-width="12"/>
</g>
<defs>
<filter id="filter0_d" x="54.16" y="71.6098" width="457.726" height="51.86" filterUnits="userSpaceOnUse" color-interpolation-filters="sRGB">
<feFlood flood-opacity="0" result="BackgroundImageFix"/>
<feColorMatrix in="SourceAlpha" type="matrix" values="0 0 0 0 0 0 0 0 0 0 0 0 0 0 0 0 0 0 127 0"/>
<feOffset dx="4" dy="4"/>
<feGaussianBlur stdDeviation="2"/>
<feColorMatrix type="matrix" values="0 0 0 0 0 0 0 0 0 0 0 0 0 0 0 0 0 0 0.25 0"/>
<feBlend mode="normal" in2="BackgroundImageFix" result="effect1_dropShadow"/>
<feBlend mode="normal" in="SourceGraphic" in2="effect1_dropShadow" result="shape"/>
</filter>
<filter id="filter1_d" x="0" y="0" width="573" height="208" filterUnits="userSpaceOnUse" color-interpolation-filters="sRGB">
<feFlood flood-opacity="0" result="BackgroundImageFix"/>
<feColorMatrix in="SourceAlpha" type="matrix" values="0 0 0 0 0 0 0 0 0 0 0 0 0 0 0 0 0 0 127 0"/>
<feOffset dy="4"/>
<feGaussianBlur stdDeviation="2"/>
<feColorMatrix type="matrix" values="0 0 0 0 0 0 0 0 0 0 0 0 0 0 0 0 0 0 0.25 0"/>
<feBlend mode="normal" in2="BackgroundImageFix" result="effect1_dropShadow"/>
<feBlend mode="normal" in="SourceGraphic" in2="effect1_dropShadow" result="shape"/>
</filter>
</defs>
</svg>
